<?xml version="1.0" standalone="no"?>
<!DOCTYPE svg PUBLIC "-//W3C//DTD SVG 20010904//EN"
 "http://www.w3.org/TR/2001/REC-SVG-20010904/DTD/svg10.dtd">
<svg version="1.0" xmlns="http://www.w3.org/2000/svg"
 width="281.000000pt" height="281.000000pt" viewBox="0 0 281.000000 281.000000"
 preserveAspectRatio="xMidYMid meet">

<g transform="translate(0.000000,281.000000) scale(0.100000,-0.100000)"
fill="#000000" stroke="none">
<path d="M270 2778 l0 -33 116 -39 c134 -44 136 -43 132 44 -3 54 -4 55 -33
56 l-30 2 28 -5 c28 -4 29 -5 22 -56 -4 -29 -8 -53 -9 -54 -1 -1 -48 12 -105
29 -101 31 -103 32 -99 60 3 19 0 28 -9 28 -8 0 -13 -12 -13 -32z"/>
<path d="M628 2748 c0 -35 -1 -98 -2 -140 0 -43 -1 -78 -1 -78 -1 0 -136 45
-301 100 -164 55 -306 100 -313 100 -38 0 25 -24 284 -110 154 -51 285 -96
290 -99 6 -3 -15 -11 -45 -18 -49 -11 -50 -12 -10 -7 25 3 85 9 133 14 48 5
123 15 165 24 91 18 382 66 400 66 9 0 12 -24 12 -88 l0 -88 -62 -13 c-35 -7
-101 -22 -148 -32 -47 -11 -125 -29 -175 -40 -49 -11 -94 -22 -100 -24 -25
-12 97 11 278 51 109 24 200 44 203 44 2 0 4 -6 4 -14 0 -8 -21 -27 -47 -42
-116 -67 -206 -151 -260 -244 -25 -42 -27 -53 -28 -176 l0 -132 -47 19 c-66
26 -60 14 7 -17 30 -14 55 -30 55 -36 0 -6 -9 -26 -21 -44 -23 -38 -11 -41
-173 36 -60 28 -111 48 -114 45 -3 -2 48 -31 114 -62 l119 -57 -79 -8 c-44 -4
-103 -12 -131 -18 -47 -10 -56 -8 -120 21 -87 39 -115 50 -115 43 0 -2 34 -21
76 -41 l76 -37 -52 -23 c-64 -28 -72 -28 -96 -2 -27 29 -47 39 -107 49 -29 5
-61 11 -72 15 -19 6 -19 6 -2 -8 18 -15 18 -16 -10 -30 -15 -8 -39 -34 -53
-57 -14 -23 -33 -50 -43 -59 -81 -74 -92 -96 -75 -157 5 -18 20 -47 34 -63
l25 -30 -19 -38 c-19 -38 -41 -113 -48 -167 -2 -16 -10 -36 -19 -46 -11 -12
-15 -39 -15 -98 l0 -82 29 0 c34 0 79 -46 88 -91 9 -47 22 -49 103 -22 51 17
99 25 155 26 l80 2 9 -38 c12 -48 8 -51 -94 -65 -43 -6 -93 -18 -112 -27 l-33
-15 35 7 c59 10 65 9 68 -15 3 -16 -7 -33 -33 -58 -36 -34 -36 -47 1 -19 28
21 34 18 34 -18 0 -69 -99 -122 -195 -107 -28 5 -65 14 -82 20 l-33 12 0 78
c0 42 4 101 10 129 8 41 7 60 -5 87 -8 19 -16 34 -19 34 -4 0 -6 -139 -6 -309
l0 -309 31 -11 c18 -6 52 -11 76 -11 l45 0 -4 -61 c-2 -45 1 -63 10 -67 10 -3
13 4 12 24 -5 78 1 110 26 139 39 44 55 90 61 172 5 63 9 75 30 89 21 13 30
14 54 3 37 -15 51 -4 15 12 -21 10 -25 17 -19 33 4 12 6 32 5 46 -4 54 -2 112
3 121 4 5 19 9 35 9 16 0 41 5 55 10 23 9 26 8 21 -5 -17 -43 -17 -49 3 -25
31 38 29 109 -5 149 -14 17 -33 31 -42 31 -13 0 -12 -3 4 -15 17 -13 14 -14
-37 -15 -31 0 -96 -11 -144 -25 -48 -14 -89 -24 -90 -23 -1 2 -12 25 -24 51
-11 27 -33 58 -47 70 l-27 21 6 125 c6 148 27 220 91 314 50 75 71 80 178 42
128 -46 139 -48 155 -32 35 34 22 162 -23 233 -12 21 -10 23 34 42 69 30 238
62 326 62 77 0 172 -15 192 -31 6 -5 24 -52 39 -104 20 -66 34 -96 46 -100 21
-7 63 13 107 50 l30 25 17 -26 c13 -20 14 -28 4 -40 -9 -11 -7 -14 14 -14 39
0 63 -41 88 -148 12 -53 46 -167 76 -252 52 -148 55 -159 51 -236 -3 -56 -10
-90 -22 -109 -10 -15 -16 -28 -14 -29 2 -1 15 -7 31 -14 23 -10 27 -17 27 -53
0 -24 -7 -50 -15 -59 -13 -14 -12 -22 2 -68 18 -56 33 -68 33 -27 0 30 23 33
43 5 8 -11 28 -23 45 -26 17 -4 37 -12 43 -20 15 -19 69 21 69 52 0 21 22 39
34 27 3 -4 6 -35 6 -69 0 -61 15 -94 41 -94 6 0 7 -6 3 -12 -4 -7 2 -4 14 6
14 12 22 31 22 51 0 37 22 60 47 51 9 -4 20 -1 24 6 6 10 13 10 26 2 10 -6 39
-9 65 -7 26 2 49 0 53 -6 4 -8 12 -8 26 0 11 5 29 7 39 4 14 -4 27 2 43 19
l24 26 27 -25 c31 -28 32 -34 9 -51 -14 -10 -15 -15 -6 -25 16 -16 -1 -49 -26
-49 -12 0 -21 12 -28 38 l-11 37 1 -35 2 -35 -75 0 c-41 0 -80 -3 -87 -8 -6
-4 -14 -3 -18 3 -8 14 -56 1 -76 -20 -16 -16 -15 -19 10 -46 40 -43 64 -102
69 -166 l4 -58 230 0 c228 0 230 0 259 24 15 13 32 26 36 28 10 4 39 51 60 98
17 36 34 190 21 190 -4 0 -16 21 -28 46 -12 28 -48 73 -88 112 -37 36 -66 71
-64 78 2 8 -3 11 -11 8 -8 -3 -24 11 -40 34 -44 62 -37 71 38 51 56 -15 69
-27 53 -48 -11 -14 -11 -14 4 -3 27 21 75 -15 69 -51 -1 -5 2 -6 7 -3 12 7 64
-48 55 -58 -5 -4 -3 -6 2 -5 6 2 28 -9 50 -24 22 -15 35 -27 30 -27 -6 0 -3
-5 5 -10 8 -5 20 -10 25 -10 6 0 3 5 -5 10 -27 17 4 10 40 -10 19 -11 29 -19
23 -20 -25 0 -12 -18 16 -22 17 -2 28 -1 25 4 -3 4 0 8 5 8 34 0 -24 60 -64
66 -38 6 -120 58 -180 115 -38 36 -79 71 -90 77 -16 9 14 11 131 12 83 0 166
3 183 6 31 6 31 7 31 66 0 33 -4 57 -9 54 -5 -3 -38 7 -73 23 -105 47 -151 67
-185 80 -17 7 -39 21 -49 32 -9 10 -21 16 -25 13 -5 -3 -9 -2 -9 3 1 4 26 27
58 50 l57 41 18 -28 c36 -56 90 -76 166 -59 l51 11 0 183 0 184 -59 -31 c-99
-51 -199 -48 -235 8 l-16 24 52 1 53 2 -50 6 c-51 7 -95 25 -95 39 0 5 16 16
36 26 20 9 34 19 31 22 -3 3 -27 -6 -54 -19 -65 -33 -158 -60 -182 -52 -12 3
-21 19 -26 41 -3 20 -5 37 -3 39 4 4 216 85 241 92 23 7 22 23 -2 23 -11 0
-33 12 -50 26 -35 29 -42 73 -15 95 14 11 22 10 53 -8 20 -11 62 -26 94 -33
85 -17 123 -35 150 -72 26 -35 51 -98 66 -163 5 -25 9 236 10 688 l1 727
-1090 0 -1090 0 -2 -62z m1242 -728 c0 -4 -11 -5 -24 -3 -13 3 -26 1 -29 -4
-3 -4 10 -9 29 -9 19 -1 36 -3 38 -5 1 -2 24 -35 49 -74 25 -38 56 -83 68 -99
l22 -28 -23 7 c-62 20 -159 -3 -209 -48 -32 -30 -61 -95 -60 -137 1 -36 3 -31
14 33 12 77 105 147 195 147 90 0 180 -71 196 -154 5 -28 0 -37 -35 -73 -25
-25 -41 -50 -41 -64 0 -19 4 -15 21 19 49 98 178 98 253 -1 14 -18 26 -36 26
-39 0 -3 -19 -11 -42 -17 -31 -10 -43 -10 -46 -2 -8 24 -22 -2 -22 -41 0 -45
35 -128 53 -128 8 0 7 4 -1 12 -19 19 -14 25 26 32 20 3 47 9 60 12 21 6 22 4
22 -64 0 -194 -139 -394 -345 -497 -105 -53 -253 -79 -367 -66 -86 10 -175 40
-190 64 -4 7 -8 26 -8 43 0 34 -3 44 -65 219 -75 212 -80 262 -26 285 24 9 34
9 57 -3 84 -43 137 -176 154 -382 l8 -100 -1 108 c-1 61 2 107 7 107 6 0 3 6
-6 13 -8 6 -23 42 -33 80 -9 37 -22 70 -27 73 -6 4 -5 10 3 15 11 7 11 9 -1 9
-8 0 -25 15 -38 34 -12 18 -38 42 -57 52 -30 16 -40 17 -66 7 -38 -15 -44 -12
-66 30 -24 46 -21 132 5 184 30 58 98 103 167 110 95 10 187 -49 217 -139 11
-35 69 -102 103 -120 11 -6 -1 8 -26 30 -29 26 -50 56 -59 83 -17 51 -72 114
-122 140 l-38 19 39 58 c21 31 46 73 56 92 25 49 71 189 85 257 20 103 19 102
61 13 22 -45 39 -86 39 -90z m783 -320 c4 -3 -20 -15 -53 -25 -57 -17 -63 -17
-96 -2 -39 19 -70 22 -79 7 -3 -5 -14 -10 -24 -10 -19 0 -31 40 -31 102 l0 27
138 -46 c75 -25 141 -49 145 -53z m-1579 69 c15 -11 36 -39 47 -61 23 -44 36
-46 19 -3 -14 36 -8 40 28 21 97 -50 96 -168 -2 -252 -46 -39 -76 -41 -87 -4
-39 136 -62 200 -79 229 -26 41 -38 35 -16 -8 9 -16 16 -32 16 -34 0 -2 -22 1
-50 7 -27 5 -50 14 -50 20 0 18 43 73 69 90 36 22 73 20 105 -5z m1642 -86
c27 -10 -71 -50 -113 -45 -18 2 -33 7 -33 11 0 7 87 39 112 40 9 1 24 -2 34
-6z m-2344 -58 c52 -35 101 -138 106 -221 4 -51 1 -65 -11 -70 -9 -3 -64 11
-124 31 -92 32 -116 37 -166 32 -33 -3 -64 -11 -71 -17 -8 -9 -2 -10 28 -4
l39 7 -29 -39 c-15 -21 -30 -41 -32 -44 -7 -10 -42 42 -53 80 -21 69 37 140
116 140 15 0 24 4 20 10 -3 6 -15 10 -26 10 -25 0 -24 11 3 45 53 68 135 84
200 40z m2038 -9 c0 -16 13 -35 35 -53 l35 -29 -49 -21 -49 -20 -37 50 -38 50
27 24 c37 32 76 31 76 -1z m-240 10 c0 -3 -4 -8 -10 -11 -5 -3 -10 -1 -10 4 0
6 5 11 10 11 6 0 10 -2 10 -4z m317 -299 c17 -33 7 -47 -33 -47 -19 0 -23 7
-26 45 -5 66 25 67 59 2z m-1117 2 c0 -6 -4 -7 -10 -4 -5 3 -10 11 -10 16 0 6
5 7 10 4 6 -3 10 -11 10 -16z m1144 -145 c21 -20 20 -37 -2 -64 -24 -29 -67
-21 -84 15 -22 48 48 88 86 49z m-15 -394 c44 -22 60 -35 53 -42 -7 -7 -16 -6
-31 1 -12 7 -21 8 -21 2 0 -5 6 -12 13 -15 6 -3 -1 -2 -18 1 -16 4 -64 7 -105
7 l-75 1 -3 41 c-3 35 1 45 23 62 l27 21 36 -24 c21 -13 66 -38 101 -55z
m-565 -125 c6 -11 18 -25 28 -32 9 -7 14 -21 12 -31 -3 -9 -1 -36 4 -60 7 -27
6 -44 0 -48 -5 -4 -7 -15 -5 -26 9 -32 -3 -48 -34 -48 -34 0 -48 23 -31 51 10
15 8 20 -9 30 -15 8 -24 8 -32 0 -19 -19 -45 -12 -51 14 -4 14 -3 31 1 38 12
19 9 51 -6 63 -26 21 -2 37 46 30 29 -4 42 -2 38 5 -10 14 3 41 17 37 6 -2 16
-13 22 -23z m-312 -18 c-1 -15 2 -27 8 -27 6 0 14 -10 19 -22 l8 -22 12 23
c11 20 10 23 -8 28 -22 6 -28 27 -11 38 5 3 25 3 45 -1 37 -7 45 -27 25 -65
-9 -16 -7 -19 10 -19 23 0 27 -28 5 -36 -8 -4 -15 -12 -15 -20 0 -16 -37 -37
-50 -29 -6 3 -10 14 -10 23 0 12 -3 13 -12 4 -7 -7 -23 -12 -36 -12 -30 0 -60
64 -43 92 6 10 11 28 11 41 0 29 9 39 30 34 10 -2 14 -12 12 -30z m546 -12
c-3 -30 -1 -34 21 -37 38 -4 39 -35 2 -43 -20 -4 -31 -13 -33 -28 -2 -14 -11
-23 -27 -25 -28 -4 -45 16 -29 35 8 10 3 13 -22 13 -25 0 -31 4 -28 17 2 11
15 20 33 23 35 6 46 35 15 43 -11 3 -20 12 -20 21 0 12 11 16 46 16 l46 0 -4
-35z"/>
<path d="M2032 1643 c2 -20 8 -28 23 -28 31 0 28 49 -3 53 -20 3 -23 0 -20
-25z"/>
<path d="M1647 1543 c-12 -11 -8 -40 7 -52 21 -18 41 11 26 38 -11 22 -22 26
-33 14z"/>
<path d="M2049 1450 c-7 -39 12 -130 37 -184 17 -34 17 -37 -2 -58 -19 -23
-19 -23 1 -6 19 16 22 14 73 -49 30 -35 56 -62 59 -59 3 3 -14 27 -37 53 -71
81 -109 168 -119 273 -5 56 -7 60 -12 30z"/>
<path d="M1740 1452 c0 -7 -9 -12 -20 -12 -31 0 -70 -44 -69 -77 1 -27 1 -27
9 5 13 55 50 73 107 51 23 -9 26 -8 13 3 -8 7 -21 19 -27 27 -9 10 -13 11 -13
3z"/>
<path d="M1908 1393 c6 -2 18 -2 25 0 6 3 1 5 -13 5 -14 0 -19 -2 -12 -5z"/>
<path d="M1660 1317 c0 -9 -17 -25 -37 -36 -21 -11 -34 -20 -29 -21 4 0 26 10
47 22 30 17 42 19 51 10 14 -14 77 -16 97 -3 8 5 -4 7 -33 4 -39 -5 -51 -2
-71 17 -21 19 -25 21 -25 7z"/>
<path d="M2020 1164 c-47 -34 -51 -39 -14 -21 17 9 36 23 43 31 17 21 13 19
-29 -10z"/>
<path d="M1930 1110 c-9 -6 -10 -10 -3 -10 6 0 15 5 18 10 8 12 4 12 -15 0z"/>
<path d="M1858 1083 c7 -3 16 -2 19 1 4 3 -2 6 -13 5 -11 0 -14 -3 -6 -6z"/>
<path d="M1830 628 c9 -7 16 -26 16 -43 0 -16 -7 -36 -16 -43 -13 -12 -13 -13
3 -8 20 6 22 -4 5 -23 -11 -11 -10 -13 2 -9 19 6 30 49 17 66 -7 8 -6 21 1 37
7 14 8 25 3 25 -5 0 -18 3 -28 6 -16 5 -16 4 -3 -8z"/>
<path d="M1892 612 c13 -5 15 -11 8 -22 -15 -23 -12 -30 12 -30 21 0 21 0 2
-22 l-19 -23 23 20 c13 11 28 29 34 40 9 16 8 18 -3 8 -7 -7 -21 -13 -31 -13
-15 0 -17 3 -8 19 5 11 20 22 32 24 13 2 3 5 -22 5 -25 0 -38 -2 -28 -6z"/>
<path d="M1939 524 c-22 -25 -22 -26 -3 -16 12 6 24 18 28 27 8 21 3 19 -25
-11z"/>
<path d="M1594 627 c-12 -49 0 -109 19 -101 6 2 13 20 14 39 2 27 0 33 -12 28
-13 -4 -15 1 -9 36 9 54 0 53 -12 -2z m26 -56 c0 -6 -4 -13 -10 -16 -5 -3 -10
1 -10 9 0 9 5 16 10 16 6 0 10 -4 10 -9z"/>
<path d="M1673 643 c31 -5 31 -5 15 -49 -7 -20 -20 -35 -32 -37 -12 -2 -2 -5
21 -6 23 0 45 3 48 9 3 5 0 7 -8 4 -23 -9 -29 13 -13 44 18 35 13 42 -28 41
-30 -2 -30 -2 -3 -6z"/>
<path d="M1686 525 c-11 -8 -15 -15 -9 -15 6 0 16 7 23 15 16 19 11 19 -14 0z"/>
<path d="M2126 653 c20 -4 21 -7 11 -38 -9 -29 -15 -35 -46 -38 -35 -4 -35 -4
7 -5 35 -2 42 -5 42 -22 0 -12 -7 -20 -17 -20 -15 0 -16 -2 -3 -9 19 -13 30
-4 30 24 0 18 6 25 28 28 25 4 25 4 -6 6 -30 1 -32 3 -26 29 11 45 10 47 -16
48 -19 1 -20 0 -4 -3z"/>
<path d="M75 2620 c-27 -7 -27 -8 -5 -8 14 0 36 4 50 8 20 6 21 8 5 8 -11 0
-33 -4 -50 -8z"/>
<path d="M7 2603 c7 -2 19 -2 26 0 6 3 1 5 -13 5 -14 0 -19 -2 -13 -5z"/>
<path d="M1148 2573 c7 -3 16 -2 19 1 4 3 -2 6 -13 5 -11 0 -14 -3 -6 -6z"/>
<path d="M940 2535 c-14 -8 -20 -14 -15 -14 6 0 21 6 35 14 14 8 21 14 15 14
-5 0 -21 -6 -35 -14z"/>
<path d="M398 2533 c6 -2 18 -2 25 0 6 3 1 5 -13 5 -14 0 -19 -2 -12 -5z"/>
<path d="M845 2520 c3 -5 11 -10 16 -10 6 0 7 5 4 10 -3 6 -11 10 -16 10 -6 0
-7 -4 -4 -10z"/>
<path d="M958 2513 c7 -3 16 -2 19 1 4 3 -2 6 -13 5 -11 0 -14 -3 -6 -6z"/>
<path d="M1033 2493 c9 -2 23 -2 30 0 6 3 -1 5 -18 5 -16 0 -22 -2 -12 -5z"/>
<path d="M443 2483 c9 -2 23 -2 30 0 6 3 -1 5 -18 5 -16 0 -22 -2 -12 -5z"/>
<path d="M1090 2476 c-19 -7 -66 -19 -103 -26 -37 -7 -66 -14 -63 -17 7 -7
158 24 196 41 42 18 19 20 -30 2z"/>
<path d="M290 2460 c-47 -10 -74 -18 -60 -19 14 0 63 8 110 18 47 11 74 19 60
19 -14 0 -63 -8 -110 -18z"/>
<path d="M798 2443 c6 -2 18 -2 25 0 6 3 1 5 -13 5 -14 0 -19 -2 -12 -5z"/>
<path d="M168 2433 c6 -2 18 -2 25 0 6 3 1 5 -13 5 -14 0 -19 -2 -12 -5z"/>
<path d="M748 2433 c7 -3 16 -2 19 1 4 3 -2 6 -13 5 -11 0 -14 -3 -6 -6z"/>
<path d="M118 2423 c6 -2 18 -2 25 0 6 3 1 5 -13 5 -14 0 -19 -2 -12 -5z"/>
<path d="M878 2423 c6 -2 18 -2 25 0 6 3 1 5 -13 5 -14 0 -19 -2 -12 -5z"/>
<path d="M68 2413 c6 -2 18 -2 25 0 6 3 1 5 -13 5 -14 0 -19 -2 -12 -5z"/>
<path d="M838 2413 c7 -3 16 -2 19 1 4 3 -2 6 -13 5 -11 0 -14 -3 -6 -6z"/>
<path d="M18 2403 c7 -3 16 -2 19 1 4 3 -2 6 -13 5 -11 0 -14 -3 -6 -6z"/>
<path d="M685 2300 l-20 -9 20 0 c11 0 29 4 40 9 l20 9 -20 0 c-11 0 -29 -4
-40 -9z"/>
<path d="M580 2275 c-25 -7 -38 -13 -30 -14 8 0 38 6 65 13 28 8 41 14 30 14
-11 0 -40 -6 -65 -13z"/>
<path d="M508 2253 c7 -3 16 -2 19 1 4 3 -2 6 -13 5 -11 0 -14 -3 -6 -6z"/>
<path d="M428 2233 c7 -3 16 -2 19 1 4 3 -2 6 -13 5 -11 0 -14 -3 -6 -6z"/>
<path d="M368 2223 c6 -2 18 -2 25 0 6 3 1 5 -13 5 -14 0 -19 -2 -12 -5z"/>
<path d="M31 2216 c2 -2 15 -9 29 -15 24 -11 24 -11 6 3 -16 13 -49 24 -35 12z"/>
<path d="M238 2193 c7 -3 16 -2 19 1 4 3 -2 6 -13 5 -11 0 -14 -3 -6 -6z"/>
<path d="M188 2183 c7 -3 16 -2 19 1 4 3 -2 6 -13 5 -11 0 -14 -3 -6 -6z"/>
<path d="M138 2173 c7 -3 16 -2 19 1 4 3 -2 6 -13 5 -11 0 -14 -3 -6 -6z"/>
<path d="M58 2153 c7 -3 16 -2 19 1 4 3 -2 6 -13 5 -11 0 -14 -3 -6 -6z"/>
<path d="M775 2042 c-33 -8 -55 -17 -50 -18 6 -2 42 5 80 15 39 11 61 19 50
19 -11 0 -47 -7 -80 -16z"/>
<path d="M663 2013 c9 -2 23 -2 30 0 6 3 -1 5 -18 5 -16 0 -22 -2 -12 -5z"/>
<path d="M618 2003 c7 -3 16 -2 19 1 4 3 -2 6 -13 5 -11 0 -14 -3 -6 -6z"/>
<path d="M973 1333 c-7 -2 -13 -13 -13 -23 0 -26 21 -39 48 -29 25 10 26 13
12 40 -11 19 -23 22 -47 12z"/>
<path d="M1096 1208 c-3 -13 -6 -33 -6 -45 0 -24 -14 -31 -25 -13 -4 6 -25 22
-47 36 -74 47 -220 42 -265 -8 -17 -20 -17 -20 24 1 64 32 74 26 32 -20 -44
-48 -76 -124 -85 -203 l-6 -53 -47 48 c-26 27 -53 49 -59 49 -6 0 9 -19 34
-42 63 -58 97 -127 97 -199 0 -65 -8 -83 -35 -76 -15 4 -17 3 -8 -8 6 -8 18
-11 26 -8 8 3 21 0 29 -7 10 -9 15 -9 15 -1 0 6 -4 11 -9 11 -7 0 -11 130 -4
130 1 0 13 -5 27 -11 21 -10 36 -6 109 29 83 40 166 68 218 74 18 2 34 -7 57
-32 l33 -35 -30 49 c-51 83 -66 140 -66 254 0 56 0 102 -1 102 -1 0 -4 -10 -8
-22z m-66 -49 c45 -31 49 -36 55 -87 4 -30 14 -78 24 -106 l17 -53 -70 -16
c-38 -9 -109 -35 -157 -58 -104 -49 -129 -48 -152 8 -23 57 -7 162 39 254 29
58 51 78 66 58 8 -11 9 -10 4 4 -8 24 27 38 82 33 28 -2 60 -15 92 -37z"/>
<path d="M978 1143 c-15 -4 -15 -8 -2 -45 7 -22 11 -45 7 -51 -4 -6 -1 -7 7
-2 10 6 12 4 7 -8 -3 -10 -2 -17 4 -17 6 0 7 -5 3 -12 -4 -6 -3 -8 3 -5 5 4
21 -4 33 -16 18 -16 22 -17 17 -4 -3 9 -2 19 4 22 10 7 -20 64 -54 102 -10 12
-16 26 -12 32 3 6 5 10 3 10 -2 -1 -11 -3 -20 -6z"/>
<path d="M856 1093 c-20 -71 -26 -106 -20 -128 8 -32 39 -33 48 -2 18 67 -9
194 -28 130z"/>
<path d="M1017 979 c7 -7 15 -10 18 -7 3 3 -2 9 -12 12 -14 6 -15 5 -6 -5z"/>
<path d="M544 1195 c-9 -23 3 -45 24 -45 25 0 46 25 38 45 -7 19 -55 20 -62 0z"/>
<path d="M2560 1010 c-9 -6 -10 -10 -3 -10 6 0 15 5 18 10 8 12 4 12 -15 0z"/>
<path d="M1076 790 c-10 -22 -29 -54 -43 -71 -14 -16 -23 -32 -20 -35 8 -8 54
56 72 100 22 51 13 56 -9 6z"/>
<path d="M903 683 c9 -2 23 -2 30 0 6 3 -1 5 -18 5 -16 0 -22 -2 -12 -5z"/>
<path d="M681 648 c-1 -16 -7 -28 -13 -28 -9 0 -8 -4 2 -11 11 -8 12 -12 3
-16 -7 -2 -13 -20 -13 -39 0 -30 3 -34 25 -34 21 0 25 5 25 30 0 33 11 38 30
15 7 -9 10 -26 6 -42 -5 -23 -4 -25 5 -10 9 15 13 16 26 5 15 -12 15 -11 3 8
-10 16 -11 31 -3 63 9 32 8 41 -2 41 -7 0 -13 -6 -12 -12 1 -30 -4 -48 -12
-48 -15 0 -24 40 -12 53 6 8 6 18 1 27 -6 10 -10 3 -15 -23 -5 -23 -13 -37
-22 -37 -9 0 -13 6 -10 14 3 8 2 27 -3 43 l-8 28 -1 -27z m19 -93 c0 -16 -6
-25 -15 -25 -9 0 -15 9 -15 25 0 16 6 25 15 25 9 0 15 -9 15 -25z"/>
<path d="M1140 660 c-20 -6 -21 -8 -5 -8 11 0 31 4 45 8 20 6 21 8 5 8 -11 0
-31 -4 -45 -8z"/>
<path d="M1224 641 c1 -17 6 -31 14 -31 15 0 15 9 -2 39 -13 24 -13 24 -12 -8z"/>
<path d="M913 653 l57 -4 0 -52 c0 -29 -5 -58 -12 -65 -8 -8 -8 -12 -1 -12 16
0 23 25 23 80 0 38 4 50 18 53 9 3 -19 4 -63 4 -63 -1 -68 -2 -22 -4z"/>
<path d="M1386 652 c-2 -4 -1 -14 5 -22 7 -12 9 -10 9 8 0 23 -5 28 -14 14z"/>
<path d="M633 638 c-19 -25 -26 -41 -15 -34 7 4 12 -8 14 -36 3 -38 4 -36 8
20 3 34 4 62 4 62 -1 0 -6 -6 -11 -12z"/>
<path d="M1411 623 c-1 -35 -30 -49 -32 -15 0 13 -2 14 -6 2 -3 -8 -12 -19
-19 -23 -16 -9 -18 -45 -5 -65 14 -23 56 -10 59 18 7 63 11 70 43 70 30 0 31
-2 25 -31 -3 -17 -6 -35 -6 -40 0 -4 -10 -10 -22 -12 -21 -5 -21 -5 1 -4 19 2
27 10 34 36 11 45 3 61 -32 61 -20 0 -31 6 -34 18 -3 9 -5 2 -6 -15z m-11 -53
c0 -5 -11 -10 -25 -10 -14 0 -25 5 -25 10 0 6 11 10 25 10 14 0 25 -4 25 -10z
m0 -30 c0 -5 -9 -10 -20 -10 -11 0 -20 5 -20 10 0 6 9 10 20 10 11 0 20 -4 20
-10z"/>
<path d="M829 633 c-29 -7 -52 -84 -30 -98 5 -3 13 4 16 16 5 13 13 19 24 16
10 -2 18 1 18 7 0 6 3 24 7 39 7 27 2 30 -35 20z"/>
<path d="M932 631 c4 -13 18 -16 19 -4 0 4 -5 9 -11 12 -7 2 -11 -2 -8 -8z"/>
<path d="M1094 625 c-3 -8 -4 -20 -2 -27 3 -7 7 -1 10 15 6 29 1 36 -8 12z"/>
<path d="M1135 630 c3 -5 8 -10 11 -10 2 0 4 5 4 10 0 6 -5 10 -11 10 -5 0 -7
-4 -4 -10z"/>
<path d="M998 600 c-3 -16 -1 -30 4 -30 4 0 8 14 8 30 0 17 -2 30 -4 30 -2 0
-6 -13 -8 -30z"/>
<path d="M1335 610 c-3 -5 -1 -10 4 -10 6 0 11 5 11 10 0 6 -2 10 -4 10 -3 0
-8 -4 -11 -10z"/>
<path d="M872 583 c2 -22 9 -29 31 -31 24 -3 27 0 27 27 0 28 -3 31 -31 31
-27 0 -30 -3 -27 -27z m48 -3 c0 -13 -7 -20 -20 -20 -13 0 -20 7 -20 20 0 13
7 20 20 20 13 0 20 -7 20 -20z"/>
<path d="M1120 593 c0 -6 9 -9 20 -6 25 7 26 -12 3 -26 -10 -6 -12 -11 -5 -11
6 0 13 -12 13 -27 1 -17 3 -21 6 -10 3 10 14 17 26 16 21 0 21 -1 2 -9 -11 -5
-15 -9 -10 -10 6 -1 21 -3 35 -5 14 -2 19 -1 13 1 -7 3 -13 12 -13 20 0 8 -11
14 -27 15 l-28 1 25 8 c17 5 19 8 8 9 -29 2 -22 31 7 31 14 0 25 -5 25 -11 0
-5 5 -7 11 -3 19 11 -5 22 -59 26 -35 2 -52 -1 -52 -9z"/>
<path d="M1440 590 c0 -5 5 -10 11 -10 5 0 7 5 4 10 -3 6 -8 10 -11 10 -2 0
-4 -4 -4 -10z"/>
<path d="M2470 585 c0 -7 30 -13 34 -7 3 4 -4 9 -15 9 -10 1 -19 0 -19 -2z"/>
<path d="M596 565 c4 -8 8 -15 10 -15 2 0 4 7 4 15 0 8 -4 15 -10 15 -5 0 -7
-7 -4 -15z"/>
<path d="M1101 564 c0 -11 3 -14 6 -6 3 7 2 16 -1 19 -3 4 -6 -2 -5 -13z"/>
<path d="M1430 560 c0 -5 5 -10 11 -10 5 0 7 5 4 10 -3 6 -8 10 -11 10 -2 0
-4 -4 -4 -10z"/>
<path d="M1235 547 c-4 -10 -5 -21 -1 -24 10 -10 18 4 13 24 -4 17 -4 17 -12
0z"/>
<path d="M2525 540 c3 -5 8 -10 11 -10 2 0 4 5 4 10 0 6 -5 10 -11 10 -5 0 -7
-4 -4 -10z"/>
<path d="M912 531 c-11 -7 -11 -9 1 -14 9 -3 18 1 21 9 6 16 -2 18 -22 5z"/>
<path d="M1116 525 c4 -8 8 -15 10 -15 2 0 4 7 4 15 0 8 -4 15 -10 15 -5 0 -7
-7 -4 -15z"/>
<path d="M705 490 c3 -5 13 -10 21 -10 8 0 12 5 9 10 -3 6 -13 10 -21 10 -8 0
-12 -4 -9 -10z"/>
<path d="M1418 493 c6 -2 18 -2 25 0 6 3 1 5 -13 5 -14 0 -19 -2 -12 -5z"/>
<path d="M1729 388 c0 -7 -2 -21 -4 -30 -2 -10 1 -18 6 -18 5 0 9 14 9 30 0
29 -9 44 -11 18z"/>
<path d="M1278 355 c5 -38 16 -52 28 -34 4 8 3 9 -4 5 -8 -5 -12 3 -12 23 0
20 6 31 18 34 11 3 8 5 -8 6 -24 1 -26 -2 -22 -34z"/>
<path d="M2178 355 c5 -38 16 -52 28 -34 4 8 3 9 -4 5 -8 -5 -12 3 -12 23 0
20 6 31 18 34 11 3 8 5 -8 6 -24 1 -26 -2 -22 -34z"/>
<path d="M792 350 c0 -19 2 -27 5 -17 2 9 2 25 0 35 -3 9 -5 1 -5 -18z"/>
<path d="M822 360 c0 -14 2 -19 5 -12 2 6 2 18 0 25 -3 6 -5 1 -5 -13z"/>
<path d="M2660 365 c-33 -19 -21 -19 21 0 19 8 27 14 19 14 -8 0 -26 -6 -40
-14z"/>
<path d="M620 360 c-9 -6 -10 -10 -3 -10 6 0 15 5 18 10 8 12 4 12 -15 0z"/>
<path d="M855 360 c3 -5 8 -10 11 -10 2 0 4 5 4 10 0 6 -5 10 -11 10 -5 0 -7
-4 -4 -10z"/>
<path d="M1930 361 c0 -6 4 -13 10 -16 6 -3 7 1 4 9 -7 18 -14 21 -14 7z"/>
<path d="M1216 345 c-3 -8 -1 -15 4 -15 6 0 10 7 10 15 0 8 -2 15 -4 15 -2 0
-6 -7 -10 -15z"/>
<path d="M1310 349 c0 -5 5 -7 10 -4 6 3 10 8 10 11 0 2 -4 4 -10 4 -5 0 -10
-5 -10 -11z"/>
<path d="M583 331 c1 -14 9 -26 17 -28 10 -3 11 -2 4 4 -7 4 -14 17 -17 28 -5
16 -5 15 -4 -4z"/>
<path d="M992 330 c0 -14 2 -19 5 -12 2 6 2 18 0 25 -3 6 -5 1 -5 -13z"/>
<path d="M1138 343 c7 -3 16 -2 19 1 4 3 -2 6 -13 5 -11 0 -14 -3 -6 -6z"/>
<path d="M1892 330 c0 -14 2 -19 5 -12 2 6 2 18 0 25 -3 6 -5 1 -5 -13z"/>
<path d="M695 330 c-7 -12 19 -24 37 -17 7 3 3 6 -10 6 -13 1 -20 5 -17 11 3
6 4 10 1 10 -3 0 -8 -5 -11 -10z"/>
<path d="M1355 330 c-7 -12 19 -24 37 -17 7 3 3 6 -10 6 -13 1 -20 5 -17 11 3
6 4 10 1 10 -3 0 -8 -5 -11 -10z"/>
<path d="M2005 330 c-7 -12 19 -24 37 -17 7 3 3 6 -10 6 -13 1 -20 5 -17 11 3
6 4 10 1 10 -3 0 -8 -5 -11 -10z"/>
<path d="M1128 313 c7 -3 16 -2 19 1 4 3 -2 6 -13 5 -11 0 -14 -3 -6 -6z"/>
<path d="M1556 292 c-14 -3 -17 -10 -12 -34 3 -17 9 -82 13 -144 3 -65 10
-114 16 -114 6 0 7 47 3 134 -7 127 -6 135 12 145 11 6 22 7 26 4 3 -3 6 -1 6
5 0 11 -22 12 -64 4z"/>
<path d="M1395 235 c3 -27 8 -92 12 -142 3 -51 11 -93 16 -93 14 0 1 185 -18
240 l-15 45 5 -50z"/>
<path d="M1175 108 c25 -81 37 -108 47 -108 6 0 7 8 4 18 -34 89 -52 132 -57
132 -4 0 -1 -19 6 -42z"/>
<path d="M933 70 c6 -38 14 -70 19 -70 6 0 7 18 3 43 -11 76 -16 97 -24 97 -4
0 -3 -31 2 -70z"/>
<path d="M631 100 c-1 -21 30 -100 40 -100 13 0 11 9 -16 65 -13 28 -24 43
-24 35z"/>
<path d="M104 35 c-18 -14 -18 -14 4 -8 12 3 22 9 22 14 0 12 -3 11 -26 -6z"/>
</g>
</svg>
